<svg width="151" height="168" viewBox="0 0 151 168" fill="none" xmlns="http://www.w3.org/2000/svg">
<ellipse cx="75.2401" cy="57.6783" rx="33.4608" ry="33.8756" stroke="#FFD900" stroke-width="10"/>
<path d="M115.685 136.352L145.54 135.246" stroke="#1091FA" stroke-width="10" stroke-linecap="round"/>
<path d="M0.636595 133.902C-0.711973 136.311 0.148275 139.358 2.55801 140.707C4.96775 142.055 8.01445 141.195 9.36302 138.785L4.99981 136.343L0.636595 133.902ZM30.9941 89.8945L26.6309 87.4527L0.636595 133.902L4.99981 136.343L9.36302 138.785L35.3574 92.3363L30.9941 89.8945Z" fill="#1091FA"/>
<path d="M74.2041 113.123L47.9332 159.581" stroke="#1091FA" stroke-width="10" stroke-linecap="round"/>
<path d="M5.07031 136.352L34.9259 135.246" stroke="#1091FA" stroke-width="10" stroke-linecap="round"/>
<path d="M47.9336 159.58L34.9364 135.245" stroke="#1091FA" stroke-width="10" stroke-linecap="round"/>
<path d="M119.485 90.7266L145.55 135.247" stroke="#1091FA" stroke-width="10" stroke-linecap="round"/>
<path d="M98.3401 165.368C99.7037 167.769 102.756 168.61 105.157 167.246C107.558 165.883 108.399 162.831 107.036 160.429L102.688 162.899L98.3401 165.368ZM69.71 104.828L65.3621 107.297L98.3401 165.368L102.688 162.899L107.036 160.429L74.0578 102.359L69.71 104.828Z" fill="#1091FA"/>
<path d="M102.688 162.898L115.685 136.351" stroke="#1091FA" stroke-width="10" stroke-linecap="round"/>
<path d="M29.8877 89.6191L48.139 92.661" stroke="#FFD900" stroke-width="10" stroke-linecap="round"/>
<path d="M48.1396 92.6602L57.8184 110.358" stroke="#FFD900" stroke-width="10" stroke-linecap="round"/>
<path d="M75.792 102.617L57.8172 110.36" stroke="#FFD900" stroke-width="10" stroke-linecap="round"/>
<path d="M75.792 102.617L91.831 110.084" stroke="#FFD900" stroke-width="10" stroke-linecap="round"/>
<path d="M102.063 94.0449L91.9489 110.157" stroke="#FFD900" stroke-width="10" stroke-linecap="round"/>
<path d="M120.592 90.4492L102.064 94.0442" stroke="#FFD900" stroke-width="10" stroke-linecap="round"/>
<path d="M118.379 71.9199L120.591 90.4478" stroke="#FFD900" stroke-width="10" stroke-linecap="round"/>
<path d="M131.1 57.8184L118.379 71.9217" stroke="#FFD900" stroke-width="10" stroke-linecap="round"/>
<path d="M119.485 44.543L131.1 57.8167" stroke="#FFD900" stroke-width="10" stroke-linecap="round"/>
<path d="M120.592 24.6328L119.486 44.5434" stroke="#FFD900" stroke-width="10" stroke-linecap="round"/>
<path d="M103.446 21.3164L120.591 24.6348" stroke="#FFD900" stroke-width="10" stroke-linecap="round"/>
<path d="M92.9385 5L103.447 21.3156" stroke="#FFD900" stroke-width="10" stroke-linecap="round"/>
<path d="M92.9385 5L76.0698 12.4665" stroke="#FFD900" stroke-width="10" stroke-linecap="round"/>
<path d="M76.0693 12.4668L58.3711 5.55341" stroke="#FFD900" stroke-width="10" stroke-linecap="round"/>
<path d="M58.291 5.5625L49.245 20.2096" stroke="#FFD900" stroke-width="10" stroke-linecap="round"/>
<path d="M49.2451 20.209L31.2703 24.357" stroke="#FFD900" stroke-width="10" stroke-linecap="round"/>
<path d="M31.2705 24.3574L32.9276 43.3898" stroke="#FFD900" stroke-width="10" stroke-linecap="round"/>
<path d="M32.9297 43.4375L19.656 57.2643" stroke="#FFD900" stroke-width="10" stroke-linecap="round"/>
<path d="M32.6533 71.6445L19.6562 57.2647" stroke="#FFD900" stroke-width="10" stroke-linecap="round"/>
<path d="M32.6533 71.6445L29.888 89.6193" stroke="#FFD900" stroke-width="10" stroke-linecap="round"/>
</svg>
