<svg width="59" height="34" viewBox="0 0 59 34" fill="none" xmlns="http://www.w3.org/2000/svg">
<ellipse cx="39.9687" cy="17.0129" rx="16.9875" ry="19.0313" transform="rotate(90 39.9687 17.0129)" fill="url(#paint0_linear_720_1373)"/>
<path d="M0.293214 16.5488C-0.0973098 16.9393 -0.0973098 17.5724 0.293214 17.963L6.65718 24.3269C7.0477 24.7175 7.68086 24.7175 8.07139 24.3269C8.46191 23.9364 8.46191 23.3032 8.07139 22.9127L2.41453 17.2559L8.07139 11.599C8.46191 11.2085 8.46191 10.5753 8.07139 10.1848C7.68086 9.79427 7.0477 9.79427 6.65718 10.1848L0.293214 16.5488ZM3.41699 17.2559V16.2559H1.00032V17.2559V18.2559H3.41699V17.2559Z" fill="white"/>
<defs>
<linearGradient id="paint0_linear_720_1373" x1="39.9687" y1="-2.01838" x2="39.9687" y2="36.0442" gradientUnits="userSpaceOnUse">
<stop stop-color="#A2CFF8"/>
<stop offset="1" stop-color="#003366"/>
</linearGradient>
</defs>
</svg>
