<svg width="59" height="34" viewBox="0 0 59 34" fill="none" xmlns="http://www.w3.org/2000/svg">
<ellipse cx="19.0313" cy="16.9875" rx="16.9875" ry="19.0313" transform="rotate(-90 19.0313 16.9875)" fill="url(#paint0_linear_720_1315)"/>
<path d="M58.7058 17.4519C59.0963 17.0614 59.0963 16.4282 58.7058 16.0377L52.3418 9.67374C51.9513 9.28322 51.3182 9.28322 50.9276 9.67374C50.5371 10.0643 50.5371 10.6974 50.9276 11.088L56.5845 16.7448L50.9276 22.4017C50.5371 22.7922 50.5371 23.4254 50.9276 23.8159C51.3182 24.2064 51.9513 24.2064 52.3418 23.8159L58.7058 17.4519ZM55.582 16.7448V17.7448H57.9987V16.7448V15.7448H55.582V16.7448Z" fill="white"/>
<defs>
<linearGradient id="paint0_linear_720_1315" x1="19.0313" y1="-2.04377" x2="19.0313" y2="36.0188" gradientUnits="userSpaceOnUse">
<stop stop-color="#A2CFF8"/>
<stop offset="1" stop-color="#003366"/>
</linearGradient>
</defs>
</svg>
