<svg width="34" height="51" viewBox="0 0 34 51" fill="none" xmlns="http://www.w3.org/2000/svg">
<ellipse cx="16.9871" cy="34.5942" rx="16.9875" ry="16.4062" transform="rotate(180 16.9871 34.5942)" fill="url(#paint0_linear_641_831)"/>
<path d="M17.4512 0.2933C17.0607 -0.097224 16.4276 -0.097224 16.037 0.2933L9.67307 6.65726C9.28255 7.04779 9.28255 7.68095 9.67307 8.07148C10.0636 8.462 10.6968 8.462 11.0873 8.07148L16.7441 2.41462L22.401 8.07148C22.7915 8.462 23.4247 8.462 23.8152 8.07148C24.2057 7.68095 24.2057 7.04779 23.8152 6.65726L17.4512 0.2933ZM16.7441 3.08374H17.7441V1.00041H16.7441H15.7441V3.08374H16.7441Z" fill="white"/>
<defs>
<linearGradient id="paint0_linear_641_831" x1="16.9871" y1="18.188" x2="16.9871" y2="51.0005" gradientUnits="userSpaceOnUse">
<stop stop-color="#A2CFF8"/>
<stop offset="1" stop-color="#003366"/>
</linearGradient>
</defs>
</svg>
